<svg width="63" height="54" viewBox="0 0 63 54" fill="none" xmlns="http://www.w3.org/2000/svg">
<path d="M55.4968 34.0824L62.8126 15.7613C63.4914 14.0622 62.2424 12.2148 60.4155 12.2148H14.6922L12.0557 3.33906C11.4722 1.37333 9.63416 0 7.58747 0H1.9451C0.870177 0 0 0.872431 0 1.94838C0 3.02432 0.870177 3.89675 1.9451 3.89675H7.58747C7.92688 3.89675 8.23085 4.12472 8.32771 4.44971L19.8581 43.276C20.4228 45.1763 22.16 46.5228 24.1263 46.6104C23.2286 47.3803 22.6592 48.5225 22.6592 49.7996C22.6592 52.1187 24.5374 54 26.8526 54C29.1679 54 31.046 52.1187 31.046 49.7996C31.046 48.5256 30.4782 47.385 29.5844 46.6143H44.5483C43.6537 47.385 43.0867 48.5256 43.0867 49.7996C43.0867 52.1187 44.9633 54 47.2801 54C49.5969 54 51.4727 52.1187 51.4727 49.7996C51.4727 48.5256 50.9057 47.385 50.0119 46.6143H54.9849C56.0599 46.6143 56.93 45.7427 56.93 44.6659C56.93 43.5892 56.0599 42.7176 54.9849 42.7176H24.3271C23.9877 42.7176 23.6838 42.4904 23.5861 42.1646L21.9418 36.6247H51.7483C53.3997 36.6247 54.8841 35.6182 55.4968 34.0824ZM31.6894 29.9845C31.6894 30.6384 31.1602 31.1693 30.5066 31.1693C29.853 31.1693 29.3238 30.6384 29.3238 29.9845V19.2873C29.3238 18.6326 29.853 18.1025 30.5066 18.1025C30.8334 18.1025 31.1287 18.2351 31.3429 18.4496C31.5571 18.6642 31.6894 18.96 31.6894 19.2873V29.9845ZM44.8775 29.9845C44.8775 30.6384 44.3475 31.1693 43.6947 31.1693C43.0419 31.1693 42.5111 30.6384 42.5111 29.9845V19.2873C42.5111 18.6326 43.0411 18.1025 43.6947 18.1025C44.0215 18.1025 44.3168 18.2351 44.531 18.4496C44.7452 18.6642 44.8775 18.96 44.8775 19.2873V29.9845Z" fill="white"/>
</svg>
