<svg width="53" height="45" viewBox="0 0 53 45" fill="none" xmlns="http://www.w3.org/2000/svg">
<path d="M39.4492 2C44.1695 2.00011 46.9542 3.94336 48.6289 6.30762C50.376 8.77423 50.9999 11.839 51 13.9912C51 22.5653 44.9979 29.8024 38.4902 35.0801C35.2848 37.6797 32.0684 39.7115 29.6484 41.0947C28.4407 41.785 27.4363 42.3114 26.7393 42.6621C26.6553 42.7044 26.5748 42.7422 26.5 42.7793C26.4252 42.7422 26.3447 42.7044 26.2607 42.6621C25.5637 42.3114 24.5593 41.785 23.3516 41.0947C20.9316 39.7115 17.7152 37.6797 14.5098 35.0801C8.00211 29.8024 2 22.5653 2 13.9912C2.00006 11.839 2.62403 8.77423 4.37109 6.30762C6.04581 3.94336 8.83049 2.00011 13.5508 2C17.2853 2 20.0951 3.49519 22.0039 5.02637C22.9598 5.79313 23.6768 6.56013 24.1504 7.12891C24.3864 7.41235 24.5594 7.64447 24.6689 7.79785C24.7236 7.87438 24.7626 7.93101 24.7852 7.96484C24.7964 7.98173 24.8035 7.99311 24.8066 7.99805C24.8073 7.99909 24.8083 7.99954 24.8086 8L26.5 10.7041L28.1914 8C28.1917 7.99954 28.1927 7.99909 28.1934 7.99805C28.1965 7.99311 28.2036 7.98173 28.2148 7.96484C28.2374 7.93101 28.2764 7.87438 28.3311 7.79785C28.4406 7.64447 28.6136 7.41235 28.8496 7.12891C29.3232 6.56013 30.0402 5.79313 30.9961 5.02637C32.9049 3.49519 35.7147 2 39.4492 2ZM24.8076 7.99805L24.8057 7.99609V7.99414L24.8076 7.99805ZM28.1943 7.99512V7.99609L28.1914 7.99805L28.1934 7.99414C28.1946 7.99502 28.1944 7.99505 28.1943 7.99512Z" stroke="#813E2F" stroke-width="4"/>
</svg>
