<svg width="98" height="98" viewBox="0 0 98 98" fill="none" xmlns="http://www.w3.org/2000/svg">
<g clip-path="url(#clip0_5_499)">
<path d="M48.9994 97.9988C76.061 97.9988 97.9988 76.061 97.9988 48.9994C97.9988 21.9378 76.061 0 48.9994 0C21.9378 0 0 21.9378 0 48.9994C0 76.061 21.9378 97.9988 48.9994 97.9988Z" fill="#C46659"/>
<path d="M48.9912 45.6974C55.8788 45.6974 61.4624 40.1139 61.4624 33.2262C61.4624 26.3386 55.8788 20.7551 48.9912 20.7551C42.1036 20.7551 36.52 26.3386 36.52 33.2262C36.52 40.1139 42.1036 45.6974 48.9912 45.6974Z" fill="white"/>
<path d="M66.9818 62.0317C68.8055 66.6152 66.9205 71.8658 62.5823 74.2129C59.5632 75.8456 55.1731 77.245 48.9911 77.245C42.8092 77.245 38.5217 75.8775 35.5073 74.2695C31.0595 71.8976 29.158 66.5491 31.0607 61.8808C33.943 54.81 40.8853 49.827 48.9911 49.827C57.097 49.827 64.1372 54.8808 66.9818 62.0306V62.0317Z" fill="white"/>
</g>
<defs>
<clipPath id="clip0_5_499">
<rect width="98" height="98" fill="white"/>
</clipPath>
</defs>
</svg>
