<svg width="61" height="54" viewBox="0 0 61 54" fill="none" xmlns="http://www.w3.org/2000/svg">
<g clip-path="url(#clip0_5_508)">
<path d="M30.5538 22.5895C38.8276 22.5895 47.1013 22.5791 55.3751 22.5937C58.8793 22.5999 60.8964 24.1568 60.9461 26.8356C60.9979 29.6267 58.9041 31.3293 55.3047 31.3314C38.666 31.346 22.0295 31.3501 5.39088 31.3356C1.94469 31.3335 0.0103528 29.6871 0.0144949 26.8918C0.0186369 24.1256 1.91363 22.602 5.46336 22.5957C13.8282 22.5791 22.1931 22.5895 30.5559 22.5895H30.5538Z" fill="white"/>
<path d="M30.4669 53.9938C22.4665 53.9938 14.4661 53.9938 6.46781 53.9938C5.92313 53.9938 5.37638 54.0083 4.8317 53.9854C1.75416 53.8564 -0.0186387 52.2412 5.60787e-07 49.5957C0.0186398 47.0377 1.89499 45.3226 4.92697 45.2435C7.56132 45.1748 10.1998 45.2331 12.8362 45.2331C26.8364 45.2331 40.8365 45.2269 54.8346 45.229C55.5615 45.229 56.2988 45.1894 57.0112 45.3018C59.4405 45.6869 61.0124 47.5456 60.9068 49.8226C60.7991 52.1371 59.1444 53.8501 56.6467 53.9313C53.2875 54.0416 49.92 53.9771 46.5567 53.9792C41.1927 53.9833 35.8288 53.9792 30.4669 53.9792V53.9938Z" fill="white"/>
<path d="M30.8334 0.0166492C39.1072 0.0166492 47.3789 0.010405 55.6526 0.0187306C58.8896 0.0228934 60.9275 1.62766 61 4.18571C61.0704 6.74792 59.0325 8.66905 55.8887 8.6753C38.8877 8.71484 21.8887 8.71276 4.88762 8.66281C1.81215 8.65448 0.0144962 6.9061 0.00828312 4.29394C-9.79751e-07 1.6901 1.8225 0.0333004 4.92283 0.020812C13.559 -0.0166533 22.1952 0.00832356 30.8314 0.00832356V0.0166492H30.8334Z" fill="white"/>
</g>
<defs>
<clipPath id="clip0_5_508">
<rect width="61" height="54" fill="white"/>
</clipPath>
</defs>
</svg>
