<svg width="29" height="28" viewBox="0 0 29 28" fill="none" xmlns="http://www.w3.org/2000/svg">
<g clip-path="url(#clip0_5_723)">
<path d="M22.7837 18.6514C22.7275 18.263 22.8538 17.8705 23.1251 17.5888L28.6434 11.8723C29.3459 11.1453 28.9517 9.92033 27.9606 9.74927L20.1721 8.40305C19.7889 8.33685 19.458 8.09432 19.2777 7.74634L15.6043 0.674868C15.1371 -0.224956 13.8626 -0.224956 13.3954 0.674868L9.72197 7.74634C9.54171 8.09432 9.21076 8.33685 8.82765 8.40305L1.03848 9.74927C0.0473781 9.92033 -0.346746 11.1453 0.355722 11.8723L5.87404 17.5888C6.14529 17.8699 6.27164 18.2624 6.21542 18.6514L5.07536 26.5554C4.92988 27.5612 5.96098 28.3175 6.86225 27.8676L13.9466 24.3292C14.2944 24.1558 14.7036 24.1558 15.0513 24.3292L22.1357 27.8676C23.037 28.3181 24.0681 27.5612 23.9226 26.5554L22.7825 18.6514H22.7837Z" fill="#813E2F"/>
</g>
<defs>
<clipPath id="clip0_5_723">
<rect width="29" height="28" fill="white"/>
</clipPath>
</defs>
</svg>
